<svg width="80" height="80" viewBox="0 0 80 80" fill="none" xmlns="http://www.w3.org/2000/svg">
<path d="M69.2812 65.8592C36.2656 81.5624 15.7656 68.4217 2.64065 60.4374C1.82815 59.9374 0.453149 60.5624 1.64065 61.9374C6.03127 67.2342 20.3438 79.9999 39.0469 79.9999C57.75 79.9999 68.8906 69.7967 70.2812 68.0155C71.6562 66.2499 70.6719 65.2655 69.2812 65.8592ZM78.5469 60.7342C77.6562 59.578 73.1562 59.3592 70.3125 59.7186C67.4687 60.0624 63.2031 61.7967 63.5781 62.828C63.7656 63.2186 64.1562 63.0467 66.1094 62.8749C68.0625 62.6874 73.5469 61.9842 74.6875 63.4842C75.8281 64.9842 72.9375 72.1405 72.4062 73.2967C71.8906 74.453 72.5937 74.7499 73.5625 73.9842C74.5156 73.2186 76.2187 71.2186 77.375 68.4061C78.5312 65.5624 79.2187 61.6092 78.5469 60.7342Z" fill="#FF6200"/>
<path fill-rule="evenodd" clip-rule="evenodd" d="M65.9063 49.7812C63.9688 47.0937 61.9219 44.9219 61.9219 39.9687V23.4687C61.9219 16.4844 62.4219 10.0781 57.2656 5.26562C53.2031 1.375 46.4844 0 41.3281 0C31.2656 0 20.0313 3.75 17.6563 16.2031C17.4219 17.5312 18.375 18.2344 19.2344 18.4219L29.5 19.5156C30.4531 19.4687 31.1563 18.5312 31.3281 17.5781C32.2031 13.2812 35.8125 11.2187 39.8438 11.2187C42.0156 11.2187 44.4844 12.0156 45.7813 13.9687C47.25 16.1406 47.0625 19.125 47.0625 21.6406V23.0156C40.9219 23.7031 32.9063 24.1562 27.1563 26.6875C20.5313 29.5469 15.875 35.3906 15.875 43.9844C15.875 54.9843 22.8125 60.4843 31.7188 60.4843C39.2656 60.4843 43.3594 58.7031 49.1719 52.7812C51.1094 55.5781 51.7344 56.9218 55.25 59.8437C56.0313 60.2656 57.0469 60.2187 57.75 59.5937L57.7657 59.625C59.875 57.75 63.7188 54.3906 65.875 52.5937C66.7344 51.875 66.5938 50.7344 65.9063 49.7812ZM45.0938 45.0156C43.4063 48 40.75 49.8281 37.7656 49.8281C33.7031 49.8281 31.3281 46.7344 31.3281 42.1562C31.3281 33.1406 39.4063 31.5 47.0625 31.5V33.7969H47.0781C47.0781 37.9219 47.1875 41.3594 45.0938 45.0156Z" fill="black"/>
</svg>
