<svg xmlns="http://www.w3.org/2000/svg" viewBox="0 0 64 64" width="64" height="64">
  <rect width="64" height="64" rx="14" fill="#2874F0"/>
  <path d="M43.5 19h-6.2l-2.4-5.2c-.3-.7-1-1.1-1.8-1.1h-2.2c-.8 0-1.5.4-1.8 1.1L26.7 19h-6.2c-1.3 0-2.3 1.2-2.1 2.5l3.2 26.4c.1 1.2 1.1 2.1 2.3 2.1h20.2c1.2 0 2.2-.9 2.3-2.1l3.2-26.4c.2-1.3-.8-2.5-2.1-2.5z" fill="#FFE11B"/>
  <path d="M34.8 28.5h4.2c.6 0 1 .4 1 1s-.4 1-1 1h-4.2v4h3.6c.6 0 1 .4 1 1s-.4 1-1 1h-3.6v7.5c0 .6-.4 1-1 1s-1-.4-1-1v-7.5h-2.5c-.6 0-1-.4-1-1s.4-1 1-1h2.5v-4h-2.5c-.6 0-1-.4-1-1s.4-1 1-1h2.5c0-3.3 2.7-6 6-6h2.5c.6 0 1 .4 1 1s-.4 1-1 1h-2.5c-2.2 0-4 1.8-4 4v1z" fill="#2874F0"/>
</svg>
